<svg width="1440" height="800" viewBox="0 0 1440 800" fill="none" xmlns="http://www.w3.org/2000/svg">
    <g opacity="0.2" filter="url(#filter0_f)">
        <path d="M1079.5 388C1179.5 305.2 1066.17 137 999 63C817.5 119 625.5 119 444 63C376.83 137 263.5 305.2 363.5 388C459.9 468 528 381.5 720 381.5C912 381.5 983.1 468 1079.5 388Z" fill="url(#paint0_linear)"/>
    </g>
    <g opacity="0.3" filter="url(#filter1_f)">
        <path d="M1329.24 582.5C1439.16 463.154 1313.88 234.5 1240.09 130C1040.15 209.5 827.51 209.5 627.57 130C553.78 234.5 428.5 463.154 538.42 582.5C644.78 698.5 719.41 577.5 932.83 577.5C1146.24 577.5 1222.88 698.5 1329.24 582.5Z" fill="url(#paint1_linear)"/>
    </g>
    <g opacity="0.2" filter="url(#filter2_f)">
        <ellipse cx="723.5" cy="530.5" rx="399.5" ry="184.5" fill="url(#paint2_linear)"/>
    </g>
    <defs>
        <filter id="filter0_f" x="0" y="-252" width="1440" height="1048" filterUnits="userSpaceOnUse" color-interpolation-filters="sRGB">
            <feFlood flood-opacity="0" result="BackgroundImageFix"/>
            <feBlend mode="normal" in="SourceGraphic" in2="BackgroundImageFix" result="shape"/>
            <feGaussianBlur stdDeviation="157.5" result="effect1_foregroundBlur"/>
        </filter>
        <filter id="filter1_f" x="238.074" y="-170" width="1391.52" height="1097.63" filterUnits="userSpaceOnUse" color-interpolation-filters="sRGB">
            <feFlood flood-opacity="0" result="BackgroundImageFix"/>
            <feBlend mode="normal" in="SourceGraphic" in2="BackgroundImageFix" result="shape"/>
            <feGaussianBlur stdDeviation="150" result="effect1_foregroundBlur"/>
        </filter>
        <filter id="filter2_f" x="124" y="146" width="1199" height="769" filterUnits="userSpaceOnUse" color-interpolation-filters="sRGB">
            <feFlood flood-opacity="0" result="BackgroundImageFix"/>
            <feBlend mode="normal" in="SourceGraphic" in2="BackgroundImageFix" result="shape"/>
            <feGaussianBlur stdDeviation="100" result="effect1_foregroundBlur"/>
        </filter>
        <linearGradient id="paint0_linear" x1="384" y1="63" x2="1059" y2="63" gradientUnits="userSpaceOnUse">
            <stop stop-color="#6A5AF9"/>
            <stop offset="1" stop-color="#00D9FF"/>
        </linearGradient>
        <linearGradient id="paint1_linear" x1="565.5" y1="130" x2="1302.16" y2="130" gradientUnits="userSpaceOnUse">
            <stop stop-color="#FF7D95"/>
            <stop offset="1" stop-color="#8C7FFF"/>
        </linearGradient>
        <linearGradient id="paint2_linear" x1="324" y1="530.5" x2="1123" y2="530.5" gradientUnits="userSpaceOnUse">
            <stop stop-color="#6A5AF9"/>
            <stop offset="1" stop-color="#FF7D95"/>
        </linearGradient>
    </defs>
</svg> 